<?xml version="1.0" encoding="UTF-8" standalone="no"?>
<!DOCTYPE svg PUBLIC "-//W3C//DTD SVG 1.1//EN"
 "http://www.w3.org/Graphics/SVG/1.1/DTD/svg11.dtd">
<!-- Generated by graphviz version 2.36.0 (20140111.2315)
 -->
<!-- Title: G Pages: 1 -->
<svg width="299pt" height="299pt"
 viewBox="0.00 0.00 299.00 299.00" xmlns="http://www.w3.org/2000/svg" xmlns:xlink="http://www.w3.org/1999/xlink">
<g id="graph0" class="graph" transform="scale(1 1) rotate(0) translate(4 295)">
<title>G</title>
<polygon fill="white" stroke="none" points="-4,4 -4,-295 295,-295 295,4 -4,4"/>
<g id="clust1" class="cluster"><title>cluster_0</title>
<polygon fill="none" stroke="white" points="8,-48 8,-243 60,-243 60,-48 8,-48"/>
<text text-anchor="middle" x="34" y="-227.8" font-family="Times,serif" font-size="14.00">Input</text>
</g>
<g id="clust2" class="cluster"><title>cluster_1</title>
<polygon fill="none" stroke="white" points="80,-8 80,-283 138,-283 138,-8 80,-8"/>
<text text-anchor="middle" x="109" y="-267.8" font-family="Times,serif" font-size="14.00">Hidden</text>
</g>
<g id="clust3" class="cluster"><title>cluster_2</title>
<polygon fill="none" stroke="white" points="158,-48 158,-243 210,-243 210,-48 158,-48"/>
<text text-anchor="middle" x="184" y="-227.8" font-family="Times,serif" font-size="14.00">Score</text>
</g>
<g id="clust4" class="cluster"><title>cluster_3</title>
<polygon fill="none" stroke="white" points="230,-68 230,-223 285,-223 285,-68 230,-68"/>
<text text-anchor="middle" x="257.5" y="-207.8" font-family="Times,serif" font-size="14.00">Output</text>
</g>
<!-- x1 -->
<g id="node1" class="node"><title>x1</title>
<ellipse fill="none" stroke="#ff0000" cx="34" cy="-194" rx="18" ry="18"/>
</g>
<!-- a12 -->
<g id="node5" class="node"><title>a12</title>
<ellipse fill="none" stroke="#ee0000" cx="109" cy="-154" rx="18" ry="18"/>
</g>
<!-- x1&#45;&#45;a12 -->
<g id="edge1" class="edge"><title>x1&#45;&#45;a12</title>
<path fill="none" stroke="black" d="M50.1256,-185.712C62.6543,-178.847 80.3705,-169.139 92.8937,-162.277"/>
</g>
<!-- a22 -->
<g id="node6" class="node"><title>a22</title>
<ellipse fill="none" stroke="#ee0000" cx="109" cy="-234" rx="18" ry="18"/>
</g>
<!-- x1&#45;&#45;a22 -->
<g id="edge2" class="edge"><title>x1&#45;&#45;a22</title>
<path fill="none" stroke="black" d="M50.1256,-202.288C62.6543,-209.153 80.3705,-218.861 92.8937,-225.723"/>
</g>
<!-- a32 -->
<g id="node7" class="node"><title>a32</title>
<ellipse fill="none" stroke="#ee0000" cx="109" cy="-194" rx="18" ry="18"/>
</g>
<!-- x1&#45;&#45;a32 -->
<g id="edge3" class="edge"><title>x1&#45;&#45;a32</title>
<path fill="none" stroke="black" d="M52.3,-194C63.9368,-194 79.2134,-194 90.8242,-194"/>
</g>
<!-- x2 -->
<g id="node2" class="node"><title>x2</title>
<ellipse fill="none" stroke="#ff0000" cx="34" cy="-154" rx="18" ry="18"/>
</g>
<!-- x2&#45;&#45;a12 -->
<g id="edge4" class="edge"><title>x2&#45;&#45;a12</title>
<path fill="none" stroke="black" d="M52.3,-154C63.9368,-154 79.2134,-154 90.8242,-154"/>
</g>
<!-- x2&#45;&#45;a22 -->
<g id="edge5" class="edge"><title>x2&#45;&#45;a22</title>
<path fill="none" stroke="black" d="M46.7287,-166.853C60.3513,-181.782 82.6902,-206.263 96.3004,-221.179"/>
</g>
<!-- x2&#45;&#45;a32 -->
<g id="edge6" class="edge"><title>x2&#45;&#45;a32</title>
<path fill="none" stroke="black" d="M50.1256,-162.288C62.6543,-169.153 80.3705,-178.861 92.8937,-185.723"/>
</g>
<!-- x3 -->
<g id="node3" class="node"><title>x3</title>
<ellipse fill="none" stroke="#ff0000" cx="34" cy="-114" rx="18" ry="18"/>
</g>
<!-- a42 -->
<g id="node8" class="node"><title>a42</title>
<ellipse fill="none" stroke="#ee0000" cx="109" cy="-34" rx="18" ry="18"/>
</g>
<!-- x3&#45;&#45;a42 -->
<g id="edge7" class="edge"><title>x3&#45;&#45;a42</title>
<path fill="none" stroke="black" d="M46.7287,-101.147C60.3513,-86.2177 82.6902,-61.7367 96.3004,-46.8215"/>
</g>
<!-- a52 -->
<g id="node9" class="node"><title>a52</title>
<ellipse fill="none" stroke="#ee0000" cx="109" cy="-114" rx="18" ry="18"/>
</g>
<!-- x3&#45;&#45;a52 -->
<g id="edge8" class="edge"><title>x3&#45;&#45;a52</title>
<path fill="none" stroke="black" d="M52.3,-114C63.9368,-114 79.2134,-114 90.8242,-114"/>
</g>
<!-- a62 -->
<g id="node10" class="node"><title>a62</title>
<ellipse fill="none" stroke="#ee0000" cx="109" cy="-74" rx="18" ry="18"/>
</g>
<!-- x3&#45;&#45;a62 -->
<g id="edge9" class="edge"><title>x3&#45;&#45;a62</title>
<path fill="none" stroke="black" d="M50.1256,-105.712C62.6543,-98.847 80.3705,-89.1395 92.8937,-82.2774"/>
</g>
<!-- x4 -->
<g id="node4" class="node"><title>x4</title>
<ellipse fill="none" stroke="#ff0000" cx="34" cy="-74" rx="18" ry="18"/>
</g>
<!-- x4&#45;&#45;a42 -->
<g id="edge10" class="edge"><title>x4&#45;&#45;a42</title>
<path fill="none" stroke="black" d="M50.1256,-65.712C62.6543,-58.847 80.3705,-49.1395 92.8937,-42.2774"/>
</g>
<!-- x4&#45;&#45;a52 -->
<g id="edge11" class="edge"><title>x4&#45;&#45;a52</title>
<path fill="none" stroke="black" d="M50.1256,-82.288C62.6543,-89.153 80.3705,-98.8605 92.8937,-105.723"/>
</g>
<!-- x4&#45;&#45;a62 -->
<g id="edge12" class="edge"><title>x4&#45;&#45;a62</title>
<path fill="none" stroke="black" d="M52.3,-74C63.9368,-74 79.2134,-74 90.8242,-74"/>
</g>
<!-- a13 -->
<g id="node11" class="node"><title>a13</title>
<ellipse fill="none" stroke="#cd0000" cx="184" cy="-194" rx="18" ry="18"/>
</g>
<!-- a12&#45;&#45;a13 -->
<g id="edge13" class="edge"><title>a12&#45;&#45;a13</title>
<path fill="none" stroke="black" d="M125.126,-162.288C137.654,-169.153 155.37,-178.861 167.894,-185.723"/>
</g>
<!-- a23 -->
<g id="node12" class="node"><title>a23</title>
<ellipse fill="none" stroke="#cd0000" cx="184" cy="-154" rx="18" ry="18"/>
</g>
<!-- a12&#45;&#45;a23 -->
<g id="edge16" class="edge"><title>a12&#45;&#45;a23</title>
<path fill="none" stroke="black" d="M127.3,-154C138.937,-154 154.213,-154 165.824,-154"/>
</g>
<!-- a22&#45;&#45;a13 -->
<g id="edge14" class="edge"><title>a22&#45;&#45;a13</title>
<path fill="none" stroke="black" d="M125.126,-225.712C137.654,-218.847 155.37,-209.139 167.894,-202.277"/>
</g>
<!-- a22&#45;&#45;a23 -->
<g id="edge17" class="edge"><title>a22&#45;&#45;a23</title>
<path fill="none" stroke="black" d="M121.729,-221.147C135.351,-206.218 157.69,-181.737 171.3,-166.821"/>
</g>
<!-- a32&#45;&#45;a13 -->
<g id="edge15" class="edge"><title>a32&#45;&#45;a13</title>
<path fill="none" stroke="black" d="M127.3,-194C138.937,-194 154.213,-194 165.824,-194"/>
</g>
<!-- a32&#45;&#45;a23 -->
<g id="edge18" class="edge"><title>a32&#45;&#45;a23</title>
<path fill="none" stroke="black" d="M125.126,-185.712C137.654,-178.847 155.37,-169.139 167.894,-162.277"/>
</g>
<!-- a33 -->
<g id="node13" class="node"><title>a33</title>
<ellipse fill="none" stroke="#cd0000" cx="184" cy="-114" rx="18" ry="18"/>
</g>
<!-- a42&#45;&#45;a33 -->
<g id="edge19" class="edge"><title>a42&#45;&#45;a33</title>
<path fill="none" stroke="black" d="M121.729,-46.8534C135.351,-61.7823 157.69,-86.2633 171.3,-101.179"/>
</g>
<!-- a43 -->
<g id="node14" class="node"><title>a43</title>
<ellipse fill="none" stroke="#cd0000" cx="184" cy="-74" rx="18" ry="18"/>
</g>
<!-- a42&#45;&#45;a43 -->
<g id="edge22" class="edge"><title>a42&#45;&#45;a43</title>
<path fill="none" stroke="black" d="M125.126,-42.288C137.654,-49.153 155.37,-58.8605 167.894,-65.7226"/>
</g>
<!-- a52&#45;&#45;a33 -->
<g id="edge20" class="edge"><title>a52&#45;&#45;a33</title>
<path fill="none" stroke="black" d="M127.3,-114C138.937,-114 154.213,-114 165.824,-114"/>
</g>
<!-- a52&#45;&#45;a43 -->
<g id="edge23" class="edge"><title>a52&#45;&#45;a43</title>
<path fill="none" stroke="black" d="M125.126,-105.712C137.654,-98.847 155.37,-89.1395 167.894,-82.2774"/>
</g>
<!-- a62&#45;&#45;a33 -->
<g id="edge21" class="edge"><title>a62&#45;&#45;a33</title>
<path fill="none" stroke="black" d="M125.126,-82.288C137.654,-89.153 155.37,-98.8605 167.894,-105.723"/>
</g>
<!-- a62&#45;&#45;a43 -->
<g id="edge24" class="edge"><title>a62&#45;&#45;a43</title>
<path fill="none" stroke="black" d="M127.3,-74C138.937,-74 154.213,-74 165.824,-74"/>
</g>
<!-- O1 -->
<g id="node15" class="node"><title>O1</title>
<ellipse fill="none" stroke="#43cd80" cx="257" cy="-94" rx="18" ry="18"/>
</g>
<!-- a13&#45;&#45;O1 -->
<g id="edge25" class="edge"><title>a13&#45;&#45;O1</title>
<path fill="none" stroke="black" d="M195.173,-179.672C208.67,-160.662 232.359,-127.298 245.846,-108.301"/>
</g>
<!-- O2 -->
<g id="node16" class="node"><title>O2</title>
<ellipse fill="none" stroke="#43cd80" cx="257" cy="-174" rx="18" ry="18"/>
</g>
<!-- a13&#45;&#45;O2 -->
<g id="edge29" class="edge"><title>a13&#45;&#45;O2</title>
<path fill="none" stroke="black" d="M201.467,-189.361C212.774,-186.176 227.737,-181.961 239.129,-178.752"/>
</g>
<!-- O3 -->
<g id="node17" class="node"><title>O3</title>
<ellipse fill="none" stroke="#43cd80" cx="257" cy="-134" rx="18" ry="18"/>
</g>
<!-- a13&#45;&#45;O3 -->
<g id="edge33" class="edge"><title>a13&#45;&#45;O3</title>
<path fill="none" stroke="black" d="M198.355,-182.714C211.048,-171.987 230.031,-155.945 242.705,-145.235"/>
</g>
<!-- a23&#45;&#45;O1 -->
<g id="edge26" class="edge"><title>a23&#45;&#45;O1</title>
<path fill="none" stroke="black" d="M198.355,-142.714C211.048,-131.987 230.031,-115.945 242.705,-105.235"/>
</g>
<!-- a23&#45;&#45;O2 -->
<g id="edge30" class="edge"><title>a23&#45;&#45;O2</title>
<path fill="none" stroke="black" d="M201.467,-158.639C212.774,-161.824 227.737,-166.039 239.129,-169.248"/>
</g>
<!-- a23&#45;&#45;O3 -->
<g id="edge34" class="edge"><title>a23&#45;&#45;O3</title>
<path fill="none" stroke="black" d="M201.467,-149.361C212.774,-146.176 227.737,-141.961 239.129,-138.752"/>
</g>
<!-- a33&#45;&#45;O1 -->
<g id="edge27" class="edge"><title>a33&#45;&#45;O1</title>
<path fill="none" stroke="black" d="M201.467,-109.361C212.774,-106.176 227.737,-101.961 239.129,-98.7524"/>
</g>
<!-- a33&#45;&#45;O2 -->
<g id="edge31" class="edge"><title>a33&#45;&#45;O2</title>
<path fill="none" stroke="black" d="M198.355,-125.286C211.048,-136.013 230.031,-152.055 242.705,-162.765"/>
</g>
<!-- a33&#45;&#45;O3 -->
<g id="edge35" class="edge"><title>a33&#45;&#45;O3</title>
<path fill="none" stroke="black" d="M201.467,-118.639C212.774,-121.824 227.737,-126.039 239.129,-129.248"/>
</g>
<!-- a43&#45;&#45;O1 -->
<g id="edge28" class="edge"><title>a43&#45;&#45;O1</title>
<path fill="none" stroke="black" d="M201.467,-78.6387C212.774,-81.8236 227.737,-86.0386 239.129,-89.2476"/>
</g>
<!-- a43&#45;&#45;O2 -->
<g id="edge32" class="edge"><title>a43&#45;&#45;O2</title>
<path fill="none" stroke="black" d="M195.173,-88.3276C208.67,-107.338 232.359,-140.702 245.846,-159.699"/>
</g>
<!-- a43&#45;&#45;O3 -->
<g id="edge36" class="edge"><title>a43&#45;&#45;O3</title>
<path fill="none" stroke="black" d="M198.355,-85.2855C211.048,-96.0126 230.031,-112.055 242.705,-122.765"/>
</g>
</g>
</svg>
